HIERARCHY
ROOT hip
{
	OFFSET 0.000000 0.000000 0.000000 
	CHANNELS 6 Xposition Yposition Zposition Xrotation Zrotation Yrotation
	JOINT abdomen
	{
		OFFSET 0.000000 3.402643 0.000000 
		CHANNELS 3 Xrotation Zrotation Yrotation
		JOINT chest
		{
			OFFSET 0.000000 8.438565 -0.680529 
			CHANNELS 3 Xrotation Zrotation Yrotation
			JOINT neck
			{
				OFFSET 0.000000 10.207942 -0.272212 
				CHANNELS 3 Xrotation Zrotation Yrotation
				JOINT head
				{
					OFFSET 0.000000 3.130431 0.000000 
					CHANNELS 3 Xrotation Zrotation Yrotation
					End Site
					{
						OFFSET 0.000000 3.130435 0.000000 
					}
				}
			}
			JOINT lCollar
			{
				OFFSET 3.470700 6.669187 -0.816635 
				CHANNELS 3 Yrotation Zrotation Xrotation
				JOINT lShldr
				{
					OFFSET 3.198488 0.000000 0.000000 
					CHANNELS 3 Zrotation Yrotation Xrotation
					JOINT lForeArm
					{
						OFFSET 10.139888 0.000000 0.000000 
						CHANNELS 3 Yrotation Zrotation Xrotation
						JOINT lHand
						{
							OFFSET 8.370511 0.000000 0.000000 
							CHANNELS 3 Zrotation Yrotation Xrotation
							End Site
							{
								OFFSET 4.083176 0.000000 0.000000 
							}
						}
					}
				}
			}
			JOINT rCollar
			{
				OFFSET -3.470700 6.669187 -0.816635 
				CHANNELS 3 Yrotation Zrotation Xrotation
				JOINT rShldr
				{
					OFFSET -3.198488 0.000000 0.000000 
					CHANNELS 3 Zrotation Yrotation Xrotation
					JOINT rForeArm
					{
						OFFSET -10.139888 0.000000 0.000000 
						CHANNELS 3 Yrotation Zrotation Xrotation
						JOINT rHand
						{
							OFFSET -8.370511 0.000000 0.000000 
							CHANNELS 3 Zrotation Yrotation Xrotation
							End Site
							{
								OFFSET -4.083176 0.000000 0.000000 
							}
						}
					}
				}
			}
		}
	}
	JOINT lThigh
	{
		OFFSET 5.308129 -1.633274 1.361059 
		CHANNELS 3 Xrotation Zrotation Yrotation
		JOINT lShin
		{
			OFFSET -2.041588 -20.007561 0.000000 
			CHANNELS 3 Xrotation Zrotation Yrotation
			JOINT lFoot
			{
				OFFSET 0.000000 -19.190928 -1.224953 
				CHANNELS 3 Xrotation Yrotation Zrotation
				End Site
				{
					OFFSET 0.000000 -2.449906 4.627600 
				}
			}
		}
	}
	JOINT rThigh
	{
		OFFSET -5.308129 -1.633274 1.361059 
		CHANNELS 3 Xrotation Zrotation Yrotation
		JOINT rShin
		{
			OFFSET 2.041588 -20.007561 0.000000 
			CHANNELS 3 Xrotation Zrotation Yrotation
			JOINT rFoot
			{
				OFFSET 0.000000 -19.190928 -1.224953 
				CHANNELS 3 Xrotation Yrotation Zrotation
				End Site
				{
					OFFSET 0.000000 -2.449906 4.627600 
				}
			}
		}
	}
}
MOTION
Frames: 18
Frame Time: 0.033333
-37.532822 49.342060 2.202959 -1.742422 -0.143103 23.671942 0.000000 0.000000 0.000000 -1.286011 -2.145902 2.784906 4.680423 1.565053 15.113387 12.006446 -6.863077 14.903536 -0.082854 -2.294174 -0.605765 -72.991707 5.030489 15.851933 -35.835617 -7.311061 -6.948228 24.625935 10.331891 -2.111059 10.233716 5.831972 -0.753751 68.305626 -15.096639 11.351495 31.537085 6.784245 3.613839 -6.223847 -8.610840 -3.303865 -3.113735 5.279439 7.434034 21.811115 -3.207426 -6.102360 -16.607729 -0.189742 0.944894 5.750165 -9.353030 -9.218974 11.694851 2.181676 -11.951669 -11.939185 -1.217320 11.259814 
-37.724361 49.365654 2.246086 -1.659791 -0.240960 23.955263 0.000000 0.000000 0.000000 -1.446456 -2.038624 2.775155 4.473161 1.510208 14.868808 12.140835 -6.769249 14.575598 -0.153645 -2.058729 -0.742408 -74.646446 6.659399 18.563093 -36.435776 -7.584582 -2.332160 21.074102 16.285107 -1.230951 10.270462 5.901527 -0.908649 68.378204 -14.840586 11.671546 31.820601 6.764135 3.635819 -6.620578 -8.667228 -3.280013 -3.210378 5.609439 7.547076 21.637596 -3.197595 -6.604319 -16.413296 -0.160852 0.816944 5.671395 -8.971398 -8.974539 11.568559 2.164599 -12.721732 -11.891415 -1.209978 11.164559 
-37.946590 49.373894 2.300998 -1.653358 -0.177683 24.531366 0.000000 0.000000 0.000000 -1.521686 -2.028986 2.706493 4.467979 1.456108 14.487321 12.099800 -6.826634 14.242579 -0.378415 -1.850181 -0.830259 -75.174698 7.214413 19.703669 -35.715981 -9.239560 -13.037094 31.900030 17.325754 0.312044 10.152689 5.958113 -0.986509 68.420181 -14.599396 11.753762 31.975292 6.765064 3.414234 -6.282945 -8.761044 -3.287247 -3.338152 5.787003 7.408970 21.568068 -3.012046 -7.015553 -16.239237 -0.125544 0.515963 5.593500 -8.767414 -8.989035 11.911577 2.331027 -13.428035 -12.129960 -1.202433 10.957289 
-38.200779 49.395355 2.330878 -1.372492 -0.159602 24.775478 0.000000 0.000000 0.000000 -1.760955 -2.058081 2.804432 4.297276 1.295940 14.388736 12.307843 -6.748940 13.984805 -0.456691 -1.476292 -1.045047 -74.395981 6.923806 19.205233 -34.239368 -9.759751 -17.207319 32.644402 17.891809 0.574866 10.340357 5.856415 -1.207803 68.523781 -14.400622 11.720323 31.863274 6.718086 3.261282 -6.489917 -8.726571 -3.281160 -3.602303 5.895557 7.329012 21.238264 -2.943635 -7.089411 -15.898311 -0.053844 0.191076 5.083300 -8.656142 -8.922050 12.302489 2.438718 -13.765007 -12.335746 -1.198397 10.692835 
-38.417858 49.402271 2.361632 -1.183700 0.141487 25.107512 0.000000 0.000000 0.000000 -1.876405 -2.214125 2.814549 4.287076 1.182583 14.358593 12.367978 -6.986432 13.972404 -0.130363 -1.179330 -1.113445 -72.423309 5.893243 22.103258 -34.101368 -10.552466 -17.647072 32.130627 18.051884 0.555123 10.461735 5.724390 -1.275213 68.451790 -14.015288 11.870118 31.420912 6.802646 3.343687 -6.840505 -8.456511 -3.275012 -3.622679 5.711969 7.077484 20.896931 -2.826360 -7.087157 -15.624725 -0.061719 -0.099725 4.674413 -8.843546 -8.938745 13.026291 2.527303 -13.545775 -12.813867 -1.233491 10.436891 
-38.663643 49.409943 2.442290 -1.175759 0.238087 25.449469 0.000000 0.000000 0.000000 -1.932366 -2.116479 2.872740 4.230023 1.020810 14.563056 12.509690 -6.995316 13.992969 -0.153494 -1.295960 -1.172014 -69.070763 4.611666 26.466055 -34.805267 -11.317687 -14.679511 28.428877 17.337994 -0.131184 10.502409 5.577943 -1.322816 68.391731 -13.643052 11.853245 31.059172 6.800770 3.339849 -6.998158 -8.566185 -3.267971 -3.583122 5.974477 7.144981 20.712700 -2.797147 -7.693172 -15.438932 0.043221 -0.328884 4.525980 -8.508430 -8.782387 13.402286 2.446705 -14.281544 -13.044749 -1.216280 10.320683 
-38.883415 49.413864 2.515137 -1.254332 0.553261 25.938841 0.000000 0.000000 0.000000 -1.855540 -2.194636 2.804790 4.292150 0.916514 14.640664 12.742030 -7.020159 14.111609 -0.346283 -1.243562 -1.103661 -66.128044 2.774646 31.459801 -34.704788 -11.993005 -9.483799 26.089893 14.935983 -0.979061 10.475593 5.602365 -1.245492 68.036316 -13.304577 11.909513 30.667938 6.867880 3.177458 -7.360815 -8.551731 -3.248190 -3.337484 5.951738 7.051727 20.436035 -2.666729 -8.161077 -15.241966 0.029831 -0.600032 4.499113 -8.433912 -8.793573 13.941338 2.467069 -14.880306 -13.390516 -1.254755 10.221967 
-39.112015 49.423454 2.601538 -1.337072 0.797822 26.135662 0.000000 0.000000 0.000000 -1.804192 -2.233384 2.941405 4.424796 0.735997 14.933015 12.680788 -6.620954 14.148496 -0.384099 -1.233374 -1.054841 -63.581253 0.824685 35.019794 -34.638161 -12.259136 -5.100993 25.324444 15.486126 -0.927718 10.558788 5.660020 -1.187825 67.734932 -13.088173 11.622002 30.418238 6.832575 3.034387 -7.232918 -8.415922 -3.265064 -3.045446 6.051041 7.041397 20.061331 -2.578937 -8.464874 -15.024526 0.070166 -0.918748 4.500615 -8.348367 -8.774259 14.320147 2.456388 -15.072480 -13.659908 -1.235262 10.020148 
-39.358948 49.440853 2.607022 -1.286588 0.836959 26.780531 0.000000 0.000000 0.000000 -1.812821 -2.204589 2.697073 4.599356 0.622852 14.903248 12.426931 -6.426853 14.310056 -0.703980 -1.080742 -1.074317 -61.972416 -0.716882 37.088287 -34.486210 -12.451968 -3.654117 29.164621 15.697644 -0.453349 10.363224 5.553134 -1.207667 67.619202 -12.808499 11.231764 30.152109 6.780469 2.543413 -6.589869 -8.684899 -3.282000 -3.249852 6.176341 6.901832 19.841341 -2.425683 -8.758637 -14.658934 0.082980 -1.240375 4.392599 -8.005578 -8.628222 14.408762 2.407908 -15.814050 -13.730744 -1.215543 9.900605 
-39.552002 49.466610 2.614683 -1.322347 1.100376 27.476274 0.000000 0.000000 0.000000 -1.615738 -2.282877 2.560452 4.501418 0.585103 14.903145 12.906330 -5.945275 14.257589 -0.815076 -0.905300 -0.898390 -61.341507 -2.143525 37.218113 -33.439228 -12.418151 -1.995700 30.298456 15.399211 -0.398447 9.931219 5.409945 -1.014884 67.597420 -12.448337 10.960701 29.490404 6.725557 2.858400 -7.264827 -8.103662 -3.274346 -3.084079 6.049935 6.639085 19.327438 -2.240505 -9.089926 -14.216449 0.160482 -1.504740 4.547120 -7.855830 -8.701589 14.460712 2.387320 -16.515970 -13.777414 -1.231297 9.773367 
-39.747425 49.482059 2.645237 -1.343497 1.129961 27.965010 0.000000 0.000000 0.000000 -1.638805 -2.185401 2.511290 4.623692 0.641784 14.883825 12.744570 -6.122981 14.340368 -1.079017 -0.890850 -0.927612 -61.132133 -2.647317 35.149658 -32.670345 -12.066012 -0.976492 30.343763 15.083071 -0.466699 9.863474 5.339457 -1.035158 67.389542 -12.498040 10.660886 29.039339 6.692989 3.340699 -7.267413 -7.486654 -3.308087 -3.133969 6.218277 6.577813 19.074253 -2.113425 -9.377823 -13.947803 0.166953 -1.752199 4.547547 -7.554535 -8.609597 14.472153 2.410204 -17.147057 -13.811257 -1.220862 9.637368 
-39.937683 49.488300 2.672804 -1.523119 1.160647 28.317074 0.000000 0.000000 0.000000 -1.571818 -2.009818 2.491441 4.772297 0.679041 15.040181 12.683597 -6.071959 14.477304 -1.028246 -0.824342 -0.869053 -61.569191 -2.700132 31.789585 -32.202854 -11.472568 -1.581227 27.713701 15.183210 -0.730077 9.902745 5.509782 -1.006334 66.951485 -12.728846 10.703117 28.979301 6.720284 3.222973 -7.333961 -7.657849 -3.297104 -3.073036 6.524497 6.696954 19.006660 -2.054952 -9.803304 -13.788371 0.214677 -1.945385 4.655300 -7.194032 -8.540442 14.559844 2.429888 -17.676075 -13.877363 -1.212533 9.479033 
-40.094837 49.484436 2.687027 -1.674190 1.259375 28.689308 0.000000 0.000000 0.000000 -1.467255 -1.843946 2.501218 4.787196 0.725595 15.216193 12.912344 -5.984750 14.552923 -0.558106 -0.852124 -0.751980 -62.467415 -2.982782 27.920200 -31.951857 -10.950319 -3.896898 24.585173 15.157491 -1.077114 9.897849 5.619178 -0.938376 66.522255 -12.907261 10.872965 28.770140 6.788699 3.109451 -7.399284 -7.976950 -3.283463 -3.053298 6.641308 6.612938 19.010391 -1.885431 -10.119287 -13.657218 0.234037 -2.131590 4.684318 -6.978040 -8.536453 14.796852 2.423079 -18.071392 -14.013370 -1.196117 9.392251 
-40.246830 49.487862 2.684544 -1.757677 1.358475 28.973988 0.000000 0.000000 0.000000 -1.397758 -1.736468 2.618352 4.790926 0.903580 15.461018 13.042397 -6.235246 14.727262 -0.449703 -0.844229 -0.693407 -64.202217 -3.044414 24.105701 -31.439600 -10.347194 -6.342442 25.203226 15.636948 -0.918049 10.022606 5.791603 -0.890189 66.128448 -13.067886 10.867862 28.293499 6.888143 2.400882 -7.637810 -7.630780 -3.291095 -3.017230 6.726874 6.586947 18.827421 -1.840425 -10.423739 -13.417490 0.216235 -2.292611 4.632438 -6.828515 -8.510906 15.018198 2.448845 -18.494326 -14.101820 -1.202941 9.313717 
-40.393650 49.500156 2.686900 -1.805714 1.380696 29.228271 0.000000 0.000000 0.000000 -1.412648 -1.570488 2.725458 4.820369 1.062273 15.715733 13.051729 -6.250205 14.865237 -0.254189 -0.817255 -0.703186 -66.129776 -2.934922 20.637358 -31.169603 -9.658780 -8.105528 26.338156 15.443614 -0.824400 10.175101 5.979457 -0.918486 65.815948 -13.427788 10.702231 27.933863 6.930179 2.461279 -7.449725 -7.831816 -3.277753 -2.986844 6.880562 6.602589 18.654173 -1.778534 -10.765962 -13.247796 0.249092 -2.449348 4.623030 -6.525827 -8.310137 14.964809 2.299808 -18.973761 -14.045365 -1.198754 9.282059 
-40.529381 49.502430 2.686853 -1.802673 1.486193 29.591173 0.000000 0.000000 0.000000 -1.398954 -1.482684 2.735228 4.669242 1.136491 15.892049 13.480071 -6.116123 14.930029 -0.205005 -0.788559 -0.703054 -67.885902 -3.155164 18.951063 -30.864965 -9.376071 -11.315920 30.771433 15.646341 -0.279168 10.229036 6.100414 -0.948053 65.668274 -13.531997 10.611571 27.184065 7.001013 2.696540 -6.798931 -7.777304 -3.308966 -2.995235 6.925529 6.545304 18.482553 -1.709761 -11.068310 -13.068054 0.269184 -2.590689 4.548460 -6.423085 -8.269822 15.178487 2.260030 -19.414434 -14.138590 -1.197895 9.240819 
-40.653854 49.504532 2.678786 -1.710671 1.624843 29.944960 0.000000 0.000000 0.000000 -1.465716 -1.433877 2.764517 4.625173 1.276317 16.058863 13.680436 -6.450210 15.127187 -0.165454 -0.691221 -0.761660 -69.409241 -3.059041 18.992737 -31.658962 -9.332270 -13.059443 32.425915 15.492320 -0.127649 10.306632 6.204235 -1.015779 65.636086 -13.695996 10.553058 26.836992 7.017036 2.250086 -5.558543 -9.083666 -3.309393 -3.054286 6.838805 6.375252 18.249084 -1.624690 -11.190327 -12.807389 0.263615 -2.766363 4.332854 -6.333766 -8.193693 15.447476 2.143131 -19.959721 -14.206615 -1.205621 9.260083 
-40.750206 49.498760 2.673231 -1.651654 1.776789 30.436146 0.000000 0.000000 0.000000 -1.478934 -1.326634 2.715472 4.484208 1.312559 16.254566 13.942202 -6.530225 15.286775 -0.139171 -0.906412 -0.771540 -70.234039 -2.961469 20.620024 -33.216465 -9.550838 -14.506526 33.275288 16.115772 0.155924 10.321136 6.286691 -1.044404 65.629478 -14.528770 10.455914 28.674606 6.649550 1.893126 -6.595952 -10.008636 -3.220673 -3.144464 6.717780 6.165205 18.117670 -1.517963 -11.528968 -12.667942 0.279999 -2.855083 4.287003 -6.240199 -8.075509 15.682638 1.990270 -20.550838 -14.309015 -1.202584 9.406202 
